<svg xmlns="http://www.w3.org/2000/svg" xmlns:xlink="http://www.w3.org/1999/xlink" version="1.1" id="Layer_1" x="0px" y="0px" width="100%" viewBox="0 0 2048 2048" enable-background="new 0 0 2048 2048" xml:space="preserve">
<path fill="#F5FFFF" opacity="1.000000" stroke="none" d=" M2049.000000,144.999969   C2049.000000,779.602112 2049.000000,1414.204224 2049.000000,2049.000000   C1414.962402,2049.000000 780.924805,2049.000000 146.357574,2048.615234   C145.331100,2047.849609 144.885849,2047.253784 144.329727,2047.120483   C134.715088,2044.814087 124.923492,2043.097412 115.491051,2040.206177   C82.756447,2030.172607 56.436657,2010.554321 35.652687,1983.792847   C17.979261,1961.036377 6.674579,1935.215820 2.911255,1906.375732   C2.798969,1905.515259 1.660229,1904.788818 1.000034,1904.000000   C1.000000,1269.731201 1.000000,635.462463 1.000000,1.000000   C634.704224,1.000000 1268.408569,1.000000 1902.642700,1.385355   C1904.002075,2.176794 1904.793701,2.803078 1905.667114,2.952486   C1910.552612,3.788316 1915.563843,4.098728 1920.339355,5.334103   C1956.632080,14.722736 1987.136597,33.292843 2011.064575,62.463875   C2030.237305,85.837456 2042.122925,112.373642 2047.064209,142.128418   C2047.236328,143.164169 2048.333740,144.046249 2049.000000,144.999969  M532.955566,1115.903442   C533.008484,1137.262451 533.061462,1158.621460 532.955872,1180.908569   C533.006348,1207.269287 533.056824,1233.629883 532.950806,1260.917725   C533.000244,1286.944824 533.049683,1312.971924 532.944397,1339.925293   C532.932190,1362.851562 532.891113,1385.777832 532.916565,1408.704102   C532.938477,1428.469238 533.036011,1448.234497 532.947754,1468.926147   C532.936218,1548.244629 532.875854,1627.563232 532.998779,1706.881470   C533.009460,1713.782104 533.715576,1720.775513 534.969299,1727.564941   C541.934509,1765.284302 572.620178,1793.214111 610.746887,1793.803467   C670.718445,1794.730225 730.727234,1794.640259 790.697327,1793.625366   C816.908569,1793.181763 837.642212,1780.020020 852.277344,1758.025024   C862.354004,1742.880981 866.844238,1725.989868 866.851685,1707.926270   C866.899841,1590.614624 866.876221,1473.303101 866.866150,1355.991455   C866.865967,1354.330078 866.738098,1352.668823 866.840027,1350.083374   C866.850281,1310.623413 866.847046,1271.163452 866.912537,1231.703613   C866.915649,1229.828613 867.528198,1227.954590 868.024109,1226.770752   C881.232422,1249.067871 894.440735,1271.365112 907.803040,1294.297119   C921.608337,1317.619751 935.413696,1340.942505 949.459778,1364.967163   C957.615723,1378.650879 965.771667,1392.334595 974.048279,1406.712280   C980.528442,1417.712524 986.975159,1428.732544 993.498474,1439.707031   C999.574402,1449.929199 1005.731873,1460.102661 1011.940979,1470.987671   C1014.124451,1474.687256 1016.307922,1478.386841 1018.491272,1482.086304   C1069.851807,1569.112061 1121.227539,1656.128784 1172.550537,1743.176636   C1178.041748,1752.490234 1184.983154,1760.482544 1193.468140,1767.105347   C1214.752808,1783.718262 1239.243774,1793.131470 1265.904053,1793.629028   C1322.359009,1794.682861 1378.844971,1794.171387 1435.317993,1794.099243   C1450.220337,1794.080200 1464.260864,1790.249268 1477.206055,1782.649780   C1505.857788,1765.829224 1519.895874,1730.085571 1516.344482,1697.861572   C1514.611206,1682.134521 1509.756592,1668.179932 1501.662231,1654.958862   C1457.242065,1582.404419 1412.861694,1509.825684 1368.438354,1437.273071   C1351.227783,1409.164673 1333.940186,1381.103394 1316.488159,1352.390747   C1304.402832,1332.790161 1292.317627,1313.189697 1280.053101,1292.941528   C1269.114258,1275.185425 1258.175415,1257.429443 1247.072998,1239.004883   C1246.229736,1237.574341 1245.401245,1236.134644 1244.540771,1234.714478   C1233.691162,1216.808105 1222.836914,1198.904663 1212.619751,1180.699219   C1214.574463,1179.779297 1216.568970,1178.934937 1218.477295,1177.927246   C1229.168945,1172.282349 1239.839844,1166.597900 1251.212524,1160.855835   C1251.820923,1160.502441 1252.429443,1160.149048 1253.512085,1159.724487   C1253.813599,1159.578857 1254.033447,1159.353394 1254.847168,1158.933105   C1261.130127,1155.100098 1267.502808,1151.405640 1273.680420,1147.409912   C1302.125000,1129.011963 1328.127441,1107.638672 1351.495239,1083.094360   C1352.591309,1081.943115 1353.318115,1080.440430 1354.814819,1078.818848   C1356.965942,1076.765381 1359.295166,1074.867432 1361.242432,1072.636108   C1438.957886,983.580078 1483.316040,880.839661 1488.101318,762.040588   C1488.743042,746.108276 1487.841675,730.113770 1487.830322,713.255554   C1487.729248,711.441528 1487.628174,709.627563 1487.660889,706.929565   C1486.485474,695.287476 1485.309937,683.645325 1484.289185,671.342224   C1484.223145,670.898132 1484.157104,670.454102 1484.168701,669.140808   C1483.020874,661.464600 1482.055176,653.756042 1480.695068,646.117615   C1473.158569,603.792908 1460.420288,563.110413 1441.506104,524.466125   C1417.733398,475.895844 1386.791260,432.474030 1347.721802,394.950958   C1343.798584,391.183105 1340.116211,387.164459 1336.098999,382.670563   C1303.414551,351.661926 1267.995972,324.490509 1226.910889,304.344421   C1225.272339,303.576294 1223.633667,302.808197 1221.763916,301.807953   C1221.763916,301.807953 1221.436279,301.800751 1220.940063,301.271637   C1189.770752,285.938171 1157.310547,274.312744 1122.598999,266.951996   C1121.139893,266.626740 1119.695068,266.203308 1118.219604,265.991302   C1101.853882,263.639374 1085.509521,261.110809 1069.104736,259.068359   C1058.778931,257.782776 1048.360840,257.238770 1037.069580,256.158783   C1005.711426,256.130432 974.353271,256.102112 942.071594,255.903336   C921.808655,255.881332 901.545593,255.826096 881.282715,255.846939   C862.187439,255.866577 843.092224,255.966370 823.072754,255.861404   C796.047119,255.920609 769.021484,255.979813 741.071533,255.871948   C715.708496,255.942993 690.345398,256.014038 664.072021,255.915085   C660.065979,256.007385 656.059998,256.099701 651.276062,256.063873   C650.494019,256.135986 649.711914,256.208130 648.188721,256.123718   C646.754700,256.386444 645.320618,256.649170 643.970703,256.886475   C643.970703,256.886475 643.895691,256.840729 643.170715,256.768829   C642.448364,256.853424 641.726013,256.937988 640.272583,256.919586   C639.642456,257.223755 639.012329,257.527924 637.891113,257.372955   C628.770386,259.813263 619.276855,261.336456 610.598145,264.864136   C583.479309,275.887177 565.290039,297.093567 550.034607,320.984528   C539.679565,337.201019 533.379456,355.535858 533.264343,374.563354   C532.651245,475.869720 532.939941,577.181519 532.926392,678.491455   C532.926208,679.986389 533.052002,681.481262 532.961548,683.908630   C532.947937,795.796997 532.933899,907.685425 532.928589,1019.573792   C532.928589,1020.401917 533.048035,1021.230042 532.955200,1022.972534   C533.006897,1051.989136 533.058594,1081.005859 532.955383,1110.838379   C533.007141,1112.216919 533.058838,1113.595459 532.955566,1115.903442  z"/>
<path fill="#FEFEFE" opacity="1.000000" stroke="none" d=" M2049.000000,144.531311   C2048.333740,144.046249 2047.236328,143.164169 2047.064209,142.128418   C2042.122925,112.373642 2030.237305,85.837456 2011.064575,62.463875   C1987.136597,33.292843 1956.632080,14.722736 1920.339355,5.334103   C1915.563843,4.098728 1910.552612,3.788316 1905.667114,2.952486   C1904.793701,2.803078 1904.002075,2.176794 1903.086304,1.385355   C1951.593140,1.000000 2000.186401,1.000000 2049.000000,1.000000   C2049.000000,48.687336 2049.000000,96.375008 2049.000000,144.531311  z"/>
<path fill="#FEFEFE" opacity="1.000000" stroke="none" d=" M1.000034,1904.468628   C1.660229,1904.788818 2.798969,1905.515259 2.911255,1906.375732   C6.674579,1935.215820 17.979261,1961.036377 35.652687,1983.792847   C56.436657,2010.554321 82.756447,2030.172607 115.491051,2040.206177   C124.923492,2043.097412 134.715088,2044.814087 144.329727,2047.120483   C144.885849,2047.253784 145.331100,2047.849609 145.913971,2048.615234   C97.739670,2049.000000 49.479336,2049.000000 1.000000,2049.000000   C1.000000,2000.979248 1.000000,1952.958252 1.000034,1904.468628  z"/>
<path fill="#00EEFF" opacity="1.000000" stroke="none" d=" M1316.687622,1353.020630   C1333.940186,1381.103394 1351.227783,1409.164673 1368.438354,1437.273071   C1412.861694,1509.825684 1457.242065,1582.404419 1501.662231,1654.958862   C1509.756592,1668.179932 1514.611206,1682.134521 1516.344482,1697.861572   C1519.895874,1730.085571 1505.857788,1765.829224 1477.206055,1782.649780   C1464.260864,1790.249268 1450.220337,1794.080200 1435.317993,1794.099243   C1378.844971,1794.171387 1322.359009,1794.682861 1265.904053,1793.629028   C1239.243774,1793.131470 1214.752808,1783.718262 1193.468140,1767.105347   C1184.983154,1760.482544 1178.041748,1752.490234 1172.550537,1743.176636   C1121.227539,1656.128784 1069.851807,1569.112061 1018.491272,1482.086304   C1016.307922,1478.386841 1014.124451,1474.687256 1012.056641,1470.307861   C1013.832886,1468.568115 1015.372925,1467.195679 1017.174377,1466.500854   C1026.160645,1463.035400 1035.232666,1459.793335 1044.242798,1456.388672   C1067.697144,1447.526001 1091.140747,1438.635132 1114.577515,1429.726318   C1141.274414,1419.578613 1167.942139,1409.354004 1194.654419,1399.247192   C1217.174194,1390.726685 1239.758911,1382.377930 1262.278809,1373.857910   C1280.442993,1366.985840 1298.553345,1359.971680 1316.687622,1353.020630  z"/>
<path fill="#00EEFF" opacity="1.000000" stroke="none" d=" M866.669800,1351.007446   C866.738098,1352.668823 866.865967,1354.330078 866.866150,1355.991455   C866.876221,1473.303101 866.899841,1590.614624 866.851685,1707.926270   C866.844238,1725.989868 862.354004,1742.880981 852.277344,1758.025024   C837.642212,1780.020020 816.908569,1793.181763 790.697327,1793.625366   C730.727234,1794.640259 670.718445,1794.730225 610.746887,1793.803467   C572.620178,1793.214111 541.934509,1765.284302 534.969299,1727.564941   C533.715576,1720.775513 533.009460,1713.782104 532.998779,1706.881470   C532.875854,1627.563232 532.936218,1548.244629 533.389893,1468.510010   C535.897827,1468.016968 538.135132,1468.431763 540.000793,1467.781250   C549.872314,1464.338501 559.638000,1460.593628 569.463440,1457.016846   C591.883301,1448.855591 614.351440,1440.825439 636.733093,1432.560913   C653.686462,1426.300781 670.491760,1419.639771 687.444641,1413.378418   C704.999207,1406.894775 722.680908,1400.756226 740.256348,1394.328369   C778.755981,1380.247314 817.199341,1366.011719 855.747131,1352.064087   C859.079224,1350.858521 863.014648,1351.320190 866.669800,1351.007446  z"/>
<path fill="#07D9FB" opacity="1.000000" stroke="none" d=" M866.754883,1350.545410   C863.014648,1351.320190 859.079224,1350.858521 855.747131,1352.064087   C817.199341,1366.011719 778.755981,1380.247314 740.256348,1394.328369   C722.680908,1400.756226 704.999207,1406.894775 687.444641,1413.378418   C670.491760,1419.639771 653.686462,1426.300781 636.733093,1432.560913   C614.351440,1440.825439 591.883301,1448.855591 569.463440,1457.016846   C559.638000,1460.593628 549.872314,1464.338501 540.000793,1467.781250   C538.135132,1468.431763 535.897827,1468.016968 533.466125,1468.046753   C533.036011,1448.234497 532.938477,1428.469238 532.916565,1408.704102   C532.891113,1385.777832 532.932190,1362.851562 533.374756,1339.533447   C536.208923,1339.425781 538.924194,1340.585571 540.968201,1339.858276   C561.143250,1332.680786 581.198792,1325.168213 601.304932,1317.796143   C614.841614,1312.832764 628.430359,1308.010620 641.950317,1303.002686   C659.344238,1296.559692 676.659485,1289.903320 694.070862,1283.508545   C709.136841,1277.975220 724.331177,1272.790649 739.391907,1267.243286   C752.461731,1262.429321 765.367126,1257.168335 778.446472,1252.381592   C799.326538,1244.739868 820.299622,1237.352295 841.207764,1229.786377   C843.855408,1228.828125 846.348511,1227.442749 848.913208,1226.255249   C848.874695,1225.596680 848.836182,1224.938110 848.797668,1224.279541   C845.987549,1223.735229 843.143311,1223.324097 840.375000,1222.616089   C836.061768,1221.512939 831.828308,1220.096191 827.511108,1219.010864   C815.353882,1215.954590 803.171143,1212.999756 791.237488,1209.731445   C793.710693,1209.826782 795.965820,1210.099854 798.174805,1210.583740   C803.270142,1211.700073 803.925476,1211.191162 804.004578,1205.928833   C804.326782,1184.491699 804.661377,1163.054810 805.001038,1141.618042   C805.327637,1121.013550 805.777466,1100.410400 805.976196,1079.804688   C806.386841,1037.222412 806.704041,994.639038 806.981628,952.055603   C807.093384,934.906311 806.863647,917.753784 807.091614,900.606812   C807.152039,896.061951 808.333313,891.531921 809.359314,887.146301   C828.353882,889.525330 846.939392,892.525269 865.640503,893.730713   C879.969604,894.654297 894.450378,893.460571 908.852295,892.910217   C915.246460,892.665833 921.612610,891.685669 927.993286,891.433594   C922.425842,903.655640 925.395142,916.218750 925.120300,928.436401   C924.424377,959.372375 924.372437,990.322327 923.986938,1021.265747   C923.723816,1042.381714 923.229919,1063.494995 923.021973,1084.611328   C922.613770,1126.050049 922.243225,1167.489502 922.095459,1208.929688   C922.072876,1215.267700 923.323547,1221.610352 923.518250,1227.962769   C912.279541,1227.639038 901.500305,1227.454468 890.739258,1226.909912   C884.481262,1226.593140 878.259033,1225.616943 872.005676,1225.129150   C870.655701,1225.023804 869.241577,1225.741577 867.856934,1226.080200   C867.528198,1227.954590 866.915649,1229.828613 866.912537,1231.703613   C866.847046,1271.163452 866.850281,1310.623413 866.754883,1350.545410  z"/>
<path fill="#0EC2F6" opacity="1.000000" stroke="none" d=" M1250.517822,1160.927002   C1239.839844,1166.597900 1229.168945,1172.282349 1218.477295,1177.927246   C1216.568970,1178.934937 1214.574463,1179.779297 1211.899170,1180.849609   C1200.429077,1184.174072 1189.690552,1187.385742 1178.927368,1190.511963   C1165.632324,1194.373779 1152.316528,1198.164307 1138.947021,1201.648438   C1135.922974,1201.540894 1132.961426,1201.770386 1130.007568,1201.601440   C1130.676636,1198.862793 1131.876343,1196.532104 1131.917358,1194.181274   C1132.380615,1167.573120 1132.731201,1140.962280 1132.984985,1114.351074   C1133.375366,1073.415161 1133.675903,1032.478516 1133.997070,991.541992   C1134.341919,947.607178 1134.687988,903.672424 1134.986572,859.737366   C1135.073730,846.911255 1134.924561,834.083374 1135.042236,821.257751   C1135.081665,816.965576 1135.801392,812.681030 1135.872192,808.387390   C1135.954956,803.355530 1137.286133,797.963745 1132.840698,793.517456   C1137.514038,775.115479 1142.505737,757.180603 1146.520264,739.029663   C1148.865356,728.426880 1149.051392,717.352783 1151.291138,706.718750   C1153.938110,694.152039 1153.535767,681.594604 1152.300659,669.115723   C1150.861084,654.571716 1144.224854,641.853821 1136.025513,630.139832   C1137.604370,629.908203 1138.786499,629.859680 1139.880981,629.524475   C1151.260376,626.039062 1162.625854,622.507507 1174.371338,618.950317   C1185.105713,615.947693 1195.354004,612.490601 1205.851318,610.151306   C1217.448608,607.566772 1229.273926,606.006409 1241.448853,604.001221   C1246.931152,603.670776 1251.964722,603.338989 1256.944214,603.421997   C1256.260376,613.574768 1255.323853,623.304626 1255.064453,633.052490   C1254.520996,653.487793 1254.222900,673.931519 1254.023560,694.373779   C1253.612915,736.462891 1253.337036,778.553284 1252.999023,820.643188   C1252.670410,861.567383 1252.303589,902.491272 1252.008057,943.415771   C1251.642822,993.998413 1251.326416,1044.581421 1251.007324,1095.164307   C1250.955811,1103.324097 1251.010010,1111.484253 1250.991089,1119.644287   C1250.987671,1121.138916 1250.821655,1122.632812 1250.808594,1124.127808   C1250.701172,1136.394043 1250.612305,1148.660522 1250.517822,1160.927002  z"/>
<path fill="#10BBF5" opacity="1.000000" stroke="none" d=" M664.982361,256.085052   C690.345398,256.014038 715.708496,255.942993 741.608154,256.312073   C743.335754,257.508179 744.526794,258.264160 744.970703,258.545990   C745.337219,264.144623 745.921265,269.202118 745.960510,274.263855   C746.358032,325.530060 746.613281,376.797363 747.031311,428.063385   C747.162720,444.181702 747.681824,460.296722 747.991638,476.413849   C748.346252,494.862396 748.754028,513.310547 748.980530,531.760864   C749.383057,564.535461 749.675232,597.311523 749.996826,630.087036   C750.341248,665.194702 750.743713,700.302002 750.972290,735.410400   C751.119812,758.065308 750.892395,780.722961 751.090515,803.377136   C751.130249,807.921692 752.333374,812.456055 752.601807,816.989014   C727.176819,810.801575 703.565674,800.859863 680.344849,789.891785   C677.842224,788.709656 675.447327,787.299500 672.948608,785.651978   C667.585022,781.699768 662.423767,777.842224 656.922485,774.553528   C651.723511,771.445679 649.081665,767.237488 648.983948,761.218811   C648.697754,743.601562 648.258301,725.986633 648.017151,708.368835   C647.620911,679.424927 647.258667,650.480103 647.017090,621.534607   C646.621216,574.098572 646.388916,526.661255 645.973389,479.225464   C645.801575,459.608429 645.326416,439.994141 645.004272,420.378387   C644.660217,399.430206 644.156677,378.482727 644.040588,357.533203   C643.854553,323.969788 643.930481,290.404968 643.895691,256.840729   C643.895691,256.840729 643.970703,256.886475 644.309875,256.925964   C646.075989,256.737061 647.502930,256.508667 648.929871,256.280273   C649.711914,256.208130 650.494019,256.135986 651.979980,256.379089   C656.783386,256.491241 660.882874,256.288147 664.982361,256.085052  z"/>
<path fill="#13B4F3" opacity="1.000000" stroke="none" d=" M643.533203,256.804779   C643.930481,290.404968 643.854553,323.969788 644.040588,357.533203   C644.156677,378.482727 644.660217,399.430206 645.004272,420.378387   C645.326416,439.994141 645.801575,459.608429 645.973389,479.225464   C646.388916,526.661255 646.621216,574.098572 647.017090,621.534607   C647.258667,650.480103 647.620911,679.424927 648.017151,708.368835   C648.258301,725.986633 648.697754,743.601562 648.983948,761.218811   C649.081665,767.237488 651.723511,771.445679 656.922485,774.553528   C662.423767,777.842224 667.585022,781.699768 672.556396,785.652832   C666.775391,783.638123 661.332886,781.279358 655.000000,778.534668   C655.000000,781.148865 655.000061,782.763977 655.000000,784.379150   C654.999573,792.371826 655.088196,800.366211 654.931763,808.355774   C654.895874,810.190308 654.017395,812.008301 653.526672,813.833923   C652.948425,813.756226 652.370178,813.678528 651.791870,813.600830   C651.528076,811.911926 651.050049,810.224792 651.036133,808.533813   C650.960815,799.376160 651.127930,790.214539 650.906006,781.061646   C650.853577,778.900085 650.283508,775.858887 648.812927,774.792419   C644.520630,771.679382 639.652527,769.360168 635.010193,766.729797   C634.342468,767.051819 633.674744,767.373840 633.007019,767.695923   C633.007019,781.438049 633.007019,795.180176 632.694580,808.805237   C624.898193,801.952698 617.311707,795.327026 609.948608,788.461914   C584.031189,764.297302 564.407532,735.328369 546.503784,705.053162   C542.123474,697.646118 537.584839,690.332703 533.119019,682.976196   C533.052002,681.481262 532.926208,679.986389 532.926392,678.491455   C532.939941,577.181519 532.651245,475.869720 533.264343,374.563354   C533.379456,355.535858 539.679565,337.201019 550.034607,320.984528   C565.290039,297.093567 583.479309,275.887177 610.598145,264.864136   C619.276855,261.336456 628.770386,259.813263 638.503845,257.633301   C639.745605,257.603333 640.374634,257.312958 641.003662,257.022583   C641.726013,256.937988 642.448364,256.853424 643.533203,256.804779  z"/>
<path fill="#10BBF5" opacity="1.000000" stroke="none" d=" M1250.865234,1160.891357   C1250.612305,1148.660522 1250.701172,1136.394043 1250.808594,1124.127808   C1250.821655,1122.632812 1250.987671,1121.138916 1250.991089,1119.644287   C1251.010010,1111.484253 1250.955811,1103.324097 1251.007324,1095.164307   C1251.326416,1044.581421 1251.642822,993.998413 1252.008057,943.415771   C1252.303589,902.491272 1252.670410,861.567383 1252.999023,820.643188   C1253.337036,778.553284 1253.612915,736.462891 1254.023560,694.373779   C1254.222900,673.931519 1254.520996,653.487793 1255.064453,633.052490   C1255.323853,623.304626 1256.260376,613.574768 1257.367310,603.408691   C1260.792725,602.653748 1263.750244,601.978210 1266.687988,602.055847   C1288.057495,602.620422 1309.446167,602.941589 1330.778564,604.195312   C1339.582764,604.712708 1348.263306,607.335022 1357.006592,609.391846   C1357.008911,612.887085 1357.022095,615.990723 1356.997192,619.094055   C1356.667969,660.212463 1356.386108,701.331421 1355.978271,742.449036   C1355.770386,763.404968 1355.216797,784.357544 1355.024536,805.313538   C1354.612427,850.264038 1354.239624,895.215271 1354.030884,940.167053   C1353.874634,973.828125 1354.080200,1007.490845 1353.954102,1041.152222   C1353.913086,1052.109375 1353.275146,1063.063477 1353.061279,1074.021851   C1353.028320,1075.706909 1353.811401,1077.407837 1354.217041,1079.101440   C1353.318115,1080.440430 1352.591309,1081.943115 1351.495239,1083.094360   C1328.127441,1107.638672 1302.125000,1129.011963 1273.680420,1147.409912   C1267.502808,1151.405640 1261.130127,1155.100098 1254.280518,1159.047852   C1253.413086,1159.293091 1253.187866,1159.504150 1253.037964,1159.795654   C1252.429443,1160.149048 1251.820923,1160.502441 1250.865234,1160.891357  z"/>
<path fill="#0EC1F6" opacity="1.000000" stroke="none" d=" M753.000000,816.995117   C752.333374,812.456055 751.130249,807.921692 751.090515,803.377136   C750.892395,780.722961 751.119812,758.065308 750.972290,735.410400   C750.743713,700.302002 750.341248,665.194702 749.996826,630.087036   C749.675232,597.311523 749.383057,564.535461 748.980530,531.760864   C748.754028,513.310547 748.346252,494.862396 747.991638,476.413849   C747.681824,460.296722 747.162720,444.181702 747.031311,428.063385   C746.613281,376.797363 746.358032,325.530060 745.960510,274.263855   C745.921265,269.202118 745.337219,264.144623 744.970703,258.545990   C744.526794,258.264160 743.335754,257.508179 742.070312,256.395569   C769.021484,255.979813 796.047119,255.920609 823.630981,256.337738   C827.027710,257.209686 829.869873,257.941833 832.703796,257.911591   C835.901001,257.877472 837.034607,258.843323 837.070007,262.173218   C837.248779,278.953644 837.823486,295.730164 837.969971,312.510590   C838.388245,360.432587 838.611084,408.356323 839.027039,456.278351   C839.195801,475.723297 839.652649,495.165833 840.001770,514.609070   C840.317993,532.220886 840.765503,549.830994 840.978638,567.443970   C841.385315,601.042969 841.693970,634.643250 841.992371,668.243408   C842.355713,709.171021 842.689331,750.098877 842.986206,791.027039   C843.075623,803.350708 843.000000,815.675659 842.531372,828.003723   C839.905518,828.008118 837.742859,828.110046 835.592102,827.992615   C824.061707,827.363464 812.534302,826.679626 800.579590,826.007202   C798.032349,825.667969 795.898315,825.403320 793.792664,824.993286   C780.191650,822.344910 766.596863,819.664795 753.000000,816.995117  z"/>
<path fill="#13B4F3" opacity="1.000000" stroke="none" d=" M1354.515991,1078.960205   C1353.811401,1077.407837 1353.028320,1075.706909 1353.061279,1074.021851   C1353.275146,1063.063477 1353.913086,1052.109375 1353.954102,1041.152222   C1354.080200,1007.490845 1353.874634,973.828125 1354.030884,940.167053   C1354.239624,895.215271 1354.612427,850.264038 1355.024536,805.313538   C1355.216797,784.357544 1355.770386,763.404968 1355.978271,742.449036   C1356.386108,701.331421 1356.667969,660.212463 1356.997192,619.094055   C1357.022095,615.990723 1357.008911,612.887085 1357.421631,609.392822   C1372.807373,613.631836 1388.166504,617.319214 1402.645996,623.179504   C1414.989258,628.175171 1426.480835,635.396667 1438.045166,642.153503   C1446.019775,646.812866 1453.423340,652.440491 1461.178833,657.486511   C1468.766968,662.423523 1476.477661,667.171997 1484.134521,672.003235   C1485.309937,683.645325 1486.485474,695.287476 1487.223022,707.593628   C1487.075073,710.221130 1487.364990,712.184570 1487.654785,714.148071   C1487.841675,730.113770 1488.743042,746.108276 1488.101318,762.040588   C1483.316040,880.839661 1438.957886,983.580078 1361.242432,1072.636108   C1359.295166,1074.867432 1356.965942,1076.765381 1354.515991,1078.960205  z"/>
<path fill="#0CC8F7" opacity="1.000000" stroke="none" d=" M843.000000,828.000000   C843.000000,815.675659 843.075623,803.350708 842.986206,791.027039   C842.689331,750.098877 842.355713,709.171021 841.992371,668.243408   C841.693970,634.643250 841.385315,601.042969 840.978638,567.443970   C840.765503,549.830994 840.317993,532.220886 840.001770,514.609070   C839.652649,495.165833 839.195801,475.723297 839.027039,456.278351   C838.611084,408.356323 838.388245,360.432587 837.969971,312.510590   C837.823486,295.730164 837.248779,278.953644 837.070007,262.173218   C837.034607,258.843323 835.901001,257.877472 832.703796,257.911591   C829.869873,257.941833 827.027710,257.209686 824.093140,256.422485   C843.092224,255.966370 862.187439,255.866577 881.282715,255.846939   C901.545593,255.826096 921.808655,255.881332 942.534851,256.445923   C943.331726,261.939850 943.845093,266.886810 943.966248,271.843323   C944.384399,288.944183 944.774658,306.047119 944.976501,323.151611   C945.386414,357.898254 945.659912,392.646515 946.002014,427.393982   C946.326111,460.310577 946.621460,493.227600 947.015869,526.143372   C947.260681,546.576538 947.559570,567.010437 948.077454,587.437927   C948.202271,592.364014 946.858826,595.055176 941.539429,595.109314   C940.339600,595.121582 939.152954,596.428894 937.575134,597.204712   C925.955688,599.071167 915.118591,602.254333 905.265259,607.971985   C876.598816,624.606445 860.134644,648.866150 860.119934,682.740112   C860.115906,691.919373 861.030579,701.162415 862.318970,710.263611   C864.126404,723.030029 866.309753,735.770142 869.013428,748.375366   C871.768005,761.218445 874.991394,773.988281 878.661377,786.600464   C882.707336,800.504456 887.494873,814.192688 891.493164,827.977539   C875.018066,827.986816 859.009033,827.993408 843.000000,828.000000  z"/>
<path fill="#0ACFF9" opacity="1.000000" stroke="none" d=" M937.960205,597.140076   C939.152954,596.428894 940.339600,595.121582 941.539429,595.109314   C946.858826,595.055176 948.202271,592.364014 948.077454,587.437927   C947.559570,567.010437 947.260681,546.576538 947.015869,526.143372   C946.621460,493.227600 946.326111,460.310577 946.002014,427.393982   C945.659912,392.646515 945.386414,357.898254 944.976501,323.151611   C944.774658,306.047119 944.384399,288.944183 943.966248,271.843323   C943.845093,266.886810 943.331726,261.939850 942.996582,256.531158   C974.353271,256.102112 1005.711426,256.130432 1037.427734,256.609833   C1037.190552,259.027832 1036.063110,260.999847 1036.081787,262.960968   C1036.283936,284.227478 1036.639038,305.492798 1037.007324,326.757477   C1037.297852,343.528931 1037.783325,360.297729 1037.974976,377.070068   C1038.387573,413.149902 1038.765137,449.230713 1038.968262,485.312195   C1039.126709,513.443970 1038.976562,541.577515 1039.036621,569.710083   C1039.042480,572.501465 1039.864990,575.301758 1039.775513,578.080750   C1039.563721,584.653870 1039.363892,591.262268 1038.471313,597.762024   C1038.090210,600.537170 1038.958618,600.971008 1040.802002,601.444946   C1036.684937,603.208130 1032.630249,604.370178 1028.981323,606.299438   C1013.584229,614.440369 998.552490,613.466187 983.251282,605.773193   C972.764038,600.500488 961.549255,597.507874 949.583313,597.936646   C945.723389,598.074951 941.835388,597.427856 937.960205,597.140076  z"/>
<path fill="#01ECFE" opacity="1.000000" stroke="none" d=" M533.040283,683.442383   C537.584839,690.332703 542.123474,697.646118 546.503784,705.053162   C564.407532,735.328369 584.031189,764.297302 609.948608,788.461914   C617.311707,795.327026 624.898193,801.952698 632.953491,808.927307   C634.012695,809.461731 634.500732,809.756958 634.935913,810.376526   C632.305786,810.012207 629.541931,809.696106 627.205017,808.526855   C625.004944,807.426086 623.254944,805.425720 620.473511,803.134583   C620.243713,805.806335 620.023560,807.222046 620.014282,808.639282   C619.664124,862.086365 619.387634,915.534058 618.976257,968.980652   C618.781677,994.267761 618.332642,1019.552917 618.001465,1044.838989   C617.665955,1070.458374 617.676758,1096.089478 616.796570,1121.690063   C616.522888,1129.649658 620.036987,1133.784302 625.963318,1137.693726   C628.243530,1139.197876 629.350952,1142.479980 630.682190,1144.821777   C618.982910,1135.688232 606.987000,1127.344849 596.332520,1117.543335   C574.495667,1097.454590 557.871704,1073.327271 544.863770,1046.704224   C540.868408,1038.526978 537.024780,1030.275635 533.111694,1022.058167   C533.048035,1021.230042 532.928589,1020.401917 532.928589,1019.573792   C532.933899,907.685425 532.947937,795.796997 533.040283,683.442383  z"/>
<path fill="#08D5FA" opacity="1.000000" stroke="none" d=" M1041.050903,601.196838   C1038.958618,600.971008 1038.090210,600.537170 1038.471313,597.762024   C1039.363892,591.262268 1039.563721,584.653870 1039.775513,578.080750   C1039.864990,575.301758 1039.042480,572.501465 1039.036621,569.710083   C1038.976562,541.577515 1039.126709,513.443970 1038.968262,485.312195   C1038.765137,449.230713 1038.387573,413.149902 1037.974976,377.070068   C1037.783325,360.297729 1037.297852,343.528931 1037.007324,326.757477   C1036.639038,305.492798 1036.283936,284.227478 1036.081787,262.960968   C1036.063110,260.999847 1037.190552,259.027832 1037.885010,256.711487   C1048.360840,257.238770 1058.778931,257.782776 1069.104736,259.068359   C1085.509521,261.110809 1101.853882,263.639374 1118.219604,265.991302   C1119.695068,266.203308 1121.139893,266.626740 1122.857666,267.594879   C1123.410767,276.526306 1123.855713,284.812714 1123.972778,293.103760   C1124.376465,321.721497 1124.733032,350.340271 1124.983521,378.959717   C1125.375366,423.741486 1125.667236,468.524078 1125.998779,513.306335   C1126.030884,517.638000 1126.066406,521.969727 1126.063354,526.301453   C1126.055542,537.212891 1126.026489,548.124329 1125.788452,559.307922   C1099.222412,572.118896 1072.862671,584.634338 1046.547607,597.243042   C1044.545654,598.202332 1042.860840,599.823486 1041.047119,601.146118   C1041.065796,601.155334 1041.050903,601.196838 1041.050903,601.196838  z"/>
<path fill="#06A8F2" opacity="1.000000" stroke="none" d=" M1139.009766,1201.985596   C1152.316528,1198.164307 1165.632324,1194.373779 1178.927368,1190.511963   C1189.690552,1187.385742 1200.429077,1184.174072 1211.581177,1181.000244   C1222.836914,1198.904663 1233.691162,1216.808105 1244.540771,1234.714478   C1245.401245,1236.134644 1246.229736,1237.574341 1246.981445,1239.662598   C1246.338257,1240.939697 1245.864990,1241.658936 1245.223145,1242.163940   C1230.710449,1253.582642 1214.148438,1261.490479 1197.427124,1268.821045   C1183.983765,1274.714600 1169.835449,1279.000732 1155.601562,1284.005859   C1138.709351,1287.421875 1122.312866,1291.451660 1105.693359,1294.061401   C1090.224121,1296.490479 1074.544800,1297.826660 1058.906006,1298.848877   C1047.721802,1299.579956 1036.450073,1299.123657 1025.220337,1298.971191   C1008.956482,1298.750488 992.689148,1298.498169 976.435669,1297.914551   C968.355042,1297.624634 960.283020,1296.733398 952.240723,1295.818481   C939.292175,1294.345215 926.384949,1292.497437 913.423889,1291.160278   C911.604309,1290.972534 909.579102,1292.778931 907.649048,1293.662231   C894.440735,1271.365112 881.232422,1249.067871 867.940552,1226.425537   C869.241577,1225.741577 870.655701,1225.023804 872.005676,1225.129150   C878.259033,1225.616943 884.481262,1226.593140 890.739258,1226.909912   C901.500305,1227.454468 912.279541,1227.639038 923.988281,1227.982300   C936.613037,1227.989746 948.300598,1227.989624 960.284302,1228.286865   C962.055786,1228.723755 963.543091,1229.059937 965.004944,1228.972412   C980.700500,1228.033569 996.413513,1227.281372 1012.077942,1225.959595   C1024.582397,1224.904541 1037.110840,1223.637329 1049.477173,1221.561890   C1068.038940,1218.446533 1086.526611,1214.814575 1104.932007,1210.871826   C1116.399536,1208.415039 1127.657715,1204.981079 1139.009766,1201.985596  z"/>
<path fill="#07D9FB" opacity="1.000000" stroke="none" d=" M1126.005981,559.035767   C1126.026489,548.124329 1126.055542,537.212891 1126.063354,526.301453   C1126.066406,521.969727 1126.030884,517.638000 1125.998779,513.306335   C1125.667236,468.524078 1125.375366,423.741486 1124.983521,378.959717   C1124.733032,350.340271 1124.376465,321.721497 1123.972778,293.103760   C1123.855713,284.812714 1123.410767,276.526306 1123.186646,267.750580   C1157.310547,274.312744 1189.770752,285.938171 1220.754150,301.598633   C1219.379761,303.355835 1217.326294,304.706299 1217.185303,306.233154   C1216.902954,309.294891 1217.884888,312.447754 1217.960815,315.572296   C1218.371826,332.497620 1218.791870,349.424438 1218.973877,366.353271   C1219.388550,404.907410 1219.688843,443.462860 1219.986328,482.018158   C1220.074951,493.496857 1220.235474,504.983398 1219.914062,516.453796   C1219.713013,523.627808 1218.673096,530.778259 1217.564453,537.962769   C1203.077759,540.007690 1189.036499,542.029053 1174.608765,544.085144   C1163.911377,547.098022 1153.568970,549.973022 1143.301514,553.094421   C1137.472900,554.866516 1131.767090,557.041992 1126.005981,559.035767  z"/>
<path fill="#05E0FC" opacity="1.000000" stroke="none" d=" M1218.009766,537.939331   C1218.673096,530.778259 1219.713013,523.627808 1219.914062,516.453796   C1220.235474,504.983398 1220.074951,493.496857 1219.986328,482.018158   C1219.688843,443.462860 1219.388550,404.907410 1218.973877,366.353271   C1218.791870,349.424438 1218.371826,332.497620 1217.960815,315.572296   C1217.884888,312.447754 1216.902954,309.294891 1217.185303,306.233154   C1217.326294,304.706299 1219.379761,303.355835 1221.002197,301.863159   C1221.436279,301.800751 1221.763916,301.807953 1221.929443,302.290009   C1223.763550,303.516266 1225.432251,304.260498 1227.100952,305.004700   C1267.995972,324.490509 1303.414551,351.661926 1336.096924,383.399658   C1335.843506,385.087189 1335.362671,386.048706 1335.375366,387.003662   C1335.543091,399.609924 1335.838867,412.214569 1335.988525,424.820953   C1336.357544,455.866638 1336.617554,486.913635 1337.034424,517.958618   C1337.143311,526.065491 1337.655640,534.167175 1338.003418,542.270447   C1338.178589,546.354919 1336.538696,547.856384 1332.520508,546.342957   C1331.136230,545.821594 1329.523315,545.048401 1328.237305,545.347473   C1326.696777,545.705750 1325.394409,547.088379 1323.573975,548.012817   C1320.245361,547.421509 1317.322876,546.885376 1314.419312,546.261475   C1292.199341,541.487549 1269.882446,537.512695 1246.709839,537.691284   C1236.936768,537.588623 1227.473267,537.763977 1218.009766,537.939331  z"/>
<path fill="#05E0FC" opacity="1.000000" stroke="none" d=" M1316.587891,1352.705688   C1298.553345,1359.971680 1280.442993,1366.985840 1262.278809,1373.857910   C1239.758911,1382.377930 1217.174194,1390.726685 1194.654419,1399.247192   C1167.942139,1409.354004 1141.274414,1419.578613 1114.577515,1429.726318   C1091.140747,1438.635132 1067.697144,1447.526001 1044.242798,1456.388672   C1035.232666,1459.793335 1026.160645,1463.035400 1017.174377,1466.500854   C1015.372925,1467.195679 1013.832886,1468.568115 1012.012817,1469.962769   C1005.731873,1460.102661 999.574402,1449.929199 993.498474,1439.707031   C986.975159,1428.732544 980.528442,1417.712524 974.360535,1406.399292   C976.814148,1406.533447 979.268555,1407.889038 981.044800,1407.276978   C990.928894,1403.871094 1000.643188,1399.973877 1010.425232,1396.270386   C1039.151611,1385.394409 1067.880615,1374.525391 1096.612305,1363.663818   C1122.537109,1353.863037 1148.464844,1344.070190 1174.395020,1334.283936   C1204.376587,1322.968750 1234.374634,1311.697144 1264.334229,1300.324341   C1269.711182,1298.283447 1274.936890,1295.844360 1280.232422,1293.589111   C1292.317627,1313.189697 1304.402832,1332.790161 1316.587891,1352.705688  z"/>
<path fill="#0ACFF9" opacity="1.000000" stroke="none" d=" M790.998474,1210.004883   C803.171143,1212.999756 815.353882,1215.954590 827.511108,1219.010864   C831.828308,1220.096191 836.061768,1221.512939 840.375000,1222.616089   C843.143311,1223.324097 845.987549,1223.735229 848.797668,1224.279541   C848.836182,1224.938110 848.874695,1225.596680 848.913208,1226.255249   C846.348511,1227.442749 843.855408,1228.828125 841.207764,1229.786377   C820.299622,1237.352295 799.326538,1244.739868 778.446472,1252.381592   C765.367126,1257.168335 752.461731,1262.429321 739.391907,1267.243286   C724.331177,1272.790649 709.136841,1277.975220 694.070862,1283.508545   C676.659485,1289.903320 659.344238,1296.559692 641.950317,1303.002686   C628.430359,1308.010620 614.841614,1312.832764 601.304932,1317.796143   C581.198792,1325.168213 561.143250,1332.680786 540.968201,1339.858276   C538.924194,1340.585571 536.208923,1339.425781 533.452148,1339.070312   C533.049683,1312.971924 533.000244,1286.944824 533.405884,1260.449829   C545.038879,1255.906860 556.205994,1251.801758 567.397461,1247.764038   C581.552734,1242.656982 595.768860,1237.715820 609.882690,1232.497437   C623.523438,1227.454102 637.020691,1222.022339 650.664917,1216.988770   C673.337280,1208.624756 696.094177,1200.489624 718.745728,1192.070435   C720.139954,1191.552246 720.926086,1189.398071 722.362793,1188.041748   C737.202637,1193.236450 751.595032,1198.635498 766.178589,1203.456543   C774.287292,1206.137207 782.714722,1207.853882 790.998474,1210.004883  z"/>
<path fill="#0AD1F9" opacity="1.000000" stroke="none" d=" M1280.142822,1293.265381   C1274.936890,1295.844360 1269.711182,1298.283447 1264.334229,1300.324341   C1234.374634,1311.697144 1204.376587,1322.968750 1174.395020,1334.283936   C1148.464844,1344.070190 1122.537109,1353.863037 1096.612305,1363.663818   C1067.880615,1374.525391 1039.151611,1385.394409 1010.425232,1396.270386   C1000.643188,1399.973877 990.928894,1403.871094 981.044800,1407.276978   C979.268555,1407.889038 976.814148,1406.533447 974.300171,1406.052246   C965.771667,1392.334595 957.615723,1378.650879 949.797729,1364.554443   C951.752197,1363.808350 953.443787,1363.677368 954.973938,1363.110596   C971.744141,1356.898560 988.514709,1350.685913 1005.235474,1344.342407   C1034.815063,1333.120483 1064.383667,1321.869141 1093.911499,1310.511841   C1113.777344,1302.870850 1133.577759,1295.057861 1153.354736,1287.189575   C1154.481201,1286.741333 1155.129272,1285.090942 1156.000000,1284.000000   C1169.835449,1279.000732 1183.983765,1274.714600 1197.427124,1268.821045   C1214.148438,1261.490479 1230.710449,1253.582642 1245.223145,1242.163940   C1245.864990,1241.658936 1246.338257,1240.939697 1247.063232,1239.996826   C1258.175415,1257.429443 1269.114258,1275.185425 1280.142822,1293.265381  z"/>
<path fill="#02E9FE" opacity="1.000000" stroke="none" d=" M1323.988892,548.027405   C1325.394409,547.088379 1326.696777,545.705750 1328.237305,545.347473   C1329.523315,545.048401 1331.136230,545.821594 1332.520508,546.342957   C1336.538696,547.856384 1338.178589,546.354919 1338.003418,542.270447   C1337.655640,534.167175 1337.143311,526.065491 1337.034424,517.958618   C1336.617554,486.913635 1336.357544,455.866638 1335.988525,424.820953   C1335.838867,412.214569 1335.543091,399.609924 1335.375366,387.003662   C1335.362671,386.048706 1335.843506,385.087189 1336.208496,383.695435   C1340.116211,387.164459 1343.798584,391.183105 1347.721802,394.950958   C1386.791260,432.474030 1417.733398,475.895844 1441.506104,524.466125   C1460.420288,563.110413 1473.158569,603.792908 1480.695068,646.117615   C1482.055176,653.756042 1483.020874,661.464600 1483.819336,669.425537   C1478.437622,661.729187 1473.449341,653.719971 1468.363770,645.773071   C1458.166382,629.838135 1448.276001,613.529968 1433.567871,601.259827   C1409.466431,581.153259 1382.424561,566.174194 1352.332153,556.901611   C1342.871216,553.986328 1333.435913,550.987793 1323.988892,548.027405  z"/>
<path fill="#0EC2F6" opacity="1.000000" stroke="none" d=" M721.995117,1188.004883   C720.926086,1189.398071 720.139954,1191.552246 718.745728,1192.070435   C696.094177,1200.489624 673.337280,1208.624756 650.664917,1216.988770   C637.020691,1222.022339 623.523438,1227.454102 609.882690,1232.497437   C595.768860,1237.715820 581.552734,1242.656982 567.397461,1247.764038   C556.205994,1251.801758 545.038879,1255.906860 533.484131,1259.986328   C533.056824,1233.629883 533.006348,1207.269287 533.443115,1180.449951   C535.549988,1179.722778 537.258545,1179.699219 538.776001,1179.148804   C560.898804,1171.125366 582.929626,1162.842407 605.131226,1155.044922   C614.273560,1151.834229 623.769958,1149.631836 633.468506,1146.975830   C634.774536,1147.273926 635.782654,1147.438232 636.650635,1147.878906   C651.913147,1155.626099 667.003784,1163.733032 682.459961,1171.070435   C693.383728,1176.256348 704.797546,1180.410034 716.195557,1185.293213   C718.264099,1186.376221 720.129639,1187.190552 721.995117,1188.004883  z"/>
<path fill="#10B1ED" opacity="1.000000" stroke="none" d=" M1323.573975,548.012817   C1333.435913,550.987793 1342.871216,553.986328 1352.332153,556.901611   C1382.424561,566.174194 1409.466431,581.153259 1433.567871,601.259827   C1448.276001,613.529968 1458.166382,629.838135 1468.363770,645.773071   C1473.449341,653.719971 1478.437622,661.729187 1483.780518,669.860107   C1484.157104,670.454102 1484.223145,670.898132 1484.211914,671.672729   C1476.477661,667.171997 1468.766968,662.423523 1461.178833,657.486511   C1453.423340,652.440491 1446.019775,646.812866 1438.045166,642.153503   C1426.480835,635.396667 1414.989258,628.175171 1402.645996,623.179504   C1388.166504,617.319214 1372.807373,613.631836 1357.414917,609.000977   C1348.263306,607.335022 1339.582764,604.712708 1330.778564,604.195312   C1309.446167,602.941589 1288.057495,602.620422 1266.687988,602.055847   C1263.750244,601.978210 1260.792725,602.653748 1257.421265,602.993958   C1251.964722,603.338989 1246.931152,603.670776 1241.459717,603.578247   C1241.347656,600.200806 1241.989258,597.243042 1241.946899,594.295105   C1241.727417,579.011169 1241.428101,563.726624 1240.945557,548.448975   C1240.789307,543.503540 1241.911255,539.680115 1247.019409,537.969360   C1269.882446,537.512695 1292.199341,541.487549 1314.419312,546.261475   C1317.322876,546.885376 1320.245361,547.421509 1323.573975,548.012817  z"/>
<path fill="#0CC8F7" opacity="1.000000" stroke="none" d=" M1155.601562,1284.005859   C1155.129272,1285.090942 1154.481201,1286.741333 1153.354736,1287.189575   C1133.577759,1295.057861 1113.777344,1302.870850 1093.911499,1310.511841   C1064.383667,1321.869141 1034.815063,1333.120483 1005.235474,1344.342407   C988.514709,1350.685913 971.744141,1356.898560 954.973938,1363.110596   C953.443787,1363.677368 951.752197,1363.808350 949.677368,1364.203369   C935.413696,1340.942505 921.608337,1317.619751 907.726074,1293.979736   C909.579102,1292.778931 911.604309,1290.972534 913.423889,1291.160278   C926.384949,1292.497437 939.292175,1294.345215 952.240723,1295.818481   C960.283020,1296.733398 968.355042,1297.624634 976.435669,1297.914551   C992.689148,1298.498169 1008.956482,1298.750488 1025.220337,1298.971191   C1036.450073,1299.123657 1047.721802,1299.579956 1058.906006,1298.848877   C1074.544800,1297.826660 1090.224121,1296.490479 1105.693359,1294.061401   C1122.312866,1291.451660 1138.709351,1287.421875 1155.601562,1284.005859  z"/>
<path fill="#13B4F3" opacity="1.000000" stroke="none" d=" M633.105347,1146.970703   C623.769958,1149.631836 614.273560,1151.834229 605.131226,1155.044922   C582.929626,1162.842407 560.898804,1171.125366 538.776001,1179.148804   C537.258545,1179.699219 535.549988,1179.722778 533.522339,1179.985840   C533.061462,1158.621460 533.008484,1137.262451 533.277832,1115.198486   C533.436829,1113.003052 533.273560,1111.512817 533.110352,1110.022461   C533.058594,1081.005859 533.006897,1051.989136 533.033447,1022.515381   C537.024780,1030.275635 540.868408,1038.526978 544.863770,1046.704224   C557.871704,1073.327271 574.495667,1097.454590 596.332520,1117.543335   C606.987000,1127.344849 618.982910,1135.688232 631.000488,1144.883057   C632.121338,1145.706665 632.613342,1146.338745 633.105347,1146.970703  z"/>
<path fill="#0EC1F6" opacity="1.000000" stroke="none" d=" M664.527222,256.000061   C660.882874,256.288147 656.783386,256.491241 652.368896,256.443176   C656.059998,256.099701 660.065979,256.007385 664.527222,256.000061  z"/>
<path fill="#07D9FB" opacity="1.000000" stroke="none" d=" M1227.005859,304.674561   C1225.432251,304.260498 1223.763550,303.516266 1222.044922,302.406067   C1223.633667,302.808197 1225.272339,303.576294 1227.005859,304.674561  z"/>
<path fill="#10B1ED" opacity="1.000000" stroke="none" d=" M1487.742554,713.701782   C1487.364990,712.184570 1487.075073,710.221130 1487.156128,708.035583   C1487.628174,709.627563 1487.729248,711.441528 1487.742554,713.701782  z"/>
<path fill="#0EC2F6" opacity="1.000000" stroke="none" d=" M533.032837,1110.430420   C533.273560,1111.512817 533.436829,1113.003052 533.355347,1114.733643   C533.058838,1113.595459 533.007141,1112.216919 533.032837,1110.430420  z"/>
<path fill="#0EC1F6" opacity="1.000000" stroke="none" d=" M648.559326,256.201965   C647.502930,256.508667 646.075989,256.737061 644.267822,256.938690   C645.320618,256.649170 646.754700,256.386444 648.559326,256.201965  z"/>
<path fill="#10BBF5" opacity="1.000000" stroke="none" d=" M640.638123,256.971100   C640.374634,257.312958 639.745605,257.603333 638.749390,257.862885   C639.012329,257.527924 639.642456,257.223755 640.638123,256.971100  z"/>
<path fill="#0EC2F6" opacity="1.000000" stroke="none" d=" M1253.275024,1159.760010   C1253.187866,1159.504150 1253.413086,1159.293091 1253.942627,1159.105347   C1254.033447,1159.353394 1253.813599,1159.578857 1253.275024,1159.760010  z"/>
<path fill="#0AD1F9" opacity="1.000000" stroke="none" d=" M959.988281,1227.989502   C948.300598,1227.989624 936.613037,1227.989746 924.455383,1227.970337   C923.323547,1221.610352 922.072876,1215.267700 922.095459,1208.929688   C922.243225,1167.489502 922.613770,1126.050049 923.021973,1084.611328   C923.229919,1063.494995 923.723816,1042.381714 923.986938,1021.265747   C924.372437,990.322327 924.424377,959.372375 925.120300,928.436401   C925.395142,916.218750 922.425842,903.655640 928.437866,891.416016   C931.915283,890.720764 934.950012,890.437073 938.400879,890.183594   C940.769897,890.532104 942.712097,891.009277 944.677612,891.143250   C957.528320,892.019348 967.052185,885.295959 973.778870,875.745117   C981.756104,864.418701 987.970947,851.848267 994.898987,839.787903   C996.381653,837.206848 997.337585,834.274353 999.076233,831.899048   C1003.025330,826.503662 1009.832764,826.200989 1013.965881,831.427979   C1016.398071,834.503906 1017.999939,838.257080 1019.839294,841.776733   C1023.981140,849.701965 1028.038208,857.671448 1032.092285,866.078430   C1031.369995,874.439148 1030.179810,882.338257 1030.084839,890.250671   C1029.573120,932.829041 1029.339844,975.410767 1028.998047,1017.991211   C1028.673584,1058.407349 1028.380371,1098.823853 1027.983276,1139.239380   C1027.744751,1163.506226 1027.366577,1187.772095 1026.961304,1212.036865   C1026.905884,1215.359131 1026.330078,1218.672607 1025.556885,1221.993896   C1003.972473,1223.688232 982.825745,1225.372559 961.682678,1227.102417   C961.097595,1227.150146 960.552185,1227.682861 959.988281,1227.989502  z"/>
<path fill="#05E0FC" opacity="1.000000" stroke="none" d=" M722.362732,1188.041748   C720.129639,1187.190552 718.264099,1186.376221 716.242554,1184.903564   C716.057739,1181.332642 715.923279,1178.416626 716.020203,1175.508423   C716.296204,1167.226440 716.889221,1158.949341 716.962708,1150.666870   C717.372986,1104.436890 717.709900,1058.206177 717.980042,1011.975098   C718.098694,991.668945 717.874756,971.360535 718.030701,951.054932   C718.239990,923.798523 718.755432,896.544250 718.908997,869.287842   C718.933411,864.959778 720.063171,861.870789 724.374878,860.037109   C725.062866,860.171021 725.382385,860.256348 725.695312,860.361084   C749.136719,868.207275 772.577698,876.054932 796.401733,883.971924   C800.856506,885.025879 804.928284,886.010498 809.000000,886.995117   C808.333313,891.531921 807.152039,896.061951 807.091614,900.606812   C806.863647,917.753784 807.093384,934.906311 806.981628,952.055603   C806.704041,994.639038 806.386841,1037.222412 805.976196,1079.804688   C805.777466,1100.410400 805.327637,1121.013550 805.001038,1141.618042   C804.661377,1163.054810 804.326782,1184.491699 804.004578,1205.928833   C803.925476,1211.191162 803.270142,1211.700073 798.174805,1210.583740   C795.965820,1210.099854 793.710693,1209.826782 791.237488,1209.731445   C782.714722,1207.853882 774.287292,1206.137207 766.178589,1203.456543   C751.595032,1198.635498 737.202637,1193.236450 722.362732,1188.041748  z"/>
<path fill="#0AAEDF" opacity="1.000000" stroke="none" d=" M809.359314,887.146301   C804.928284,886.010498 800.856506,885.025879 796.404175,883.584229   C796.681580,878.120728 797.763428,873.126465 797.908691,868.105164   C798.205200,857.854492 798.072021,847.588440 797.960876,837.330444   C797.916260,833.218628 797.694702,829.172729 801.005859,826.014648   C812.534302,826.679626 824.061707,827.363464 835.592102,827.992615   C837.742859,828.110046 839.905518,828.008118 842.531372,828.003662   C859.009033,827.993408 875.018066,827.986816 891.707886,828.267700   C900.057739,842.833435 907.236755,857.406250 915.576477,871.281433   C920.713440,879.828064 928.356567,886.425415 937.984802,890.153442   C934.950012,890.437073 931.915283,890.720764 928.435974,891.021973   C921.612610,891.685669 915.246460,892.665833 908.852295,892.910217   C894.450378,893.460571 879.969604,894.654297 865.640503,893.730713   C846.939392,892.525269 828.353882,889.525330 809.359314,887.146301  z"/>
<path fill="#FEFEFE" opacity="1.000000" stroke="none" d=" M938.400879,890.183594   C928.356567,886.425415 920.713440,879.828064 915.576477,871.281433   C907.236755,857.406250 900.057739,842.833435 892.173950,828.265015   C887.494873,814.192688 882.707336,800.504456 878.661377,786.600464   C874.991394,773.988281 871.768005,761.218445 869.013428,748.375366   C866.309753,735.770142 864.126404,723.030029 862.318970,710.263611   C861.030579,701.162415 860.115906,691.919373 860.119934,682.740112   C860.134644,648.866150 876.598816,624.606445 905.265259,607.971985   C915.118591,602.254333 925.955688,599.071167 937.575134,597.204712   C941.835388,597.427856 945.723389,598.074951 949.583313,597.936646   C961.549255,597.507874 972.764038,600.500488 983.251282,605.773193   C998.552490,613.466187 1013.584229,614.440369 1028.981323,606.299438   C1032.630249,604.370178 1036.684937,603.208130 1040.802002,601.444946   C1041.050903,601.196838 1041.065796,601.155334 1041.449219,601.147705   C1055.089478,596.893494 1068.822021,596.655090 1082.223511,598.746826   C1103.896362,602.129456 1121.349243,613.676514 1135.588135,630.189880   C1144.224854,641.853821 1150.861084,654.571716 1152.300659,669.115723   C1153.535767,681.594604 1153.938110,694.152039 1151.291138,706.718750   C1149.051392,717.352783 1148.865356,728.426880 1146.520264,739.029663   C1142.505737,757.180603 1137.514038,775.115479 1132.552979,793.758484   C1126.050415,816.267395 1118.814819,837.784851 1107.185791,857.416321   C1102.230957,865.780518 1096.316895,873.827759 1089.617798,880.854980   C1075.870850,895.275513 1058.363770,894.936707 1044.463867,880.610474   C1039.973511,875.982361 1036.220337,870.639099 1032.129883,865.622925   C1028.038208,857.671448 1023.981140,849.701965 1019.839294,841.776733   C1017.999939,838.257080 1016.398071,834.503906 1013.965881,831.427979   C1009.832764,826.200989 1003.025330,826.503662 999.076233,831.899048   C997.337585,834.274353 996.381653,837.206848 994.898987,839.787903   C987.970947,851.848267 981.756104,864.418701 973.778870,875.745117   C967.052185,885.295959 957.528320,892.019348 944.677612,891.143250   C942.712097,891.009277 940.769897,890.532104 938.400879,890.183594  z"/>
<path fill="#0CCAF8" opacity="1.000000" stroke="none" d=" M1032.092285,866.078369   C1036.220337,870.639099 1039.973511,875.982361 1044.463867,880.610474   C1058.363770,894.936707 1075.870850,895.275513 1089.617798,880.854980   C1096.316895,873.827759 1102.230957,865.780518 1107.185791,857.416321   C1118.814819,837.784851 1126.050415,816.267395 1132.461060,794.134888   C1137.286133,797.963745 1135.954956,803.355530 1135.872192,808.387390   C1135.801392,812.681030 1135.081665,816.965576 1135.042236,821.257751   C1134.924561,834.083374 1135.073730,846.911255 1134.986572,859.737366   C1134.687988,903.672424 1134.341919,947.607178 1133.997070,991.541992   C1133.675903,1032.478516 1133.375366,1073.415161 1132.984985,1114.351074   C1132.731201,1140.962280 1132.380615,1167.573120 1131.917358,1194.181274   C1131.876343,1196.532104 1130.676636,1198.862793 1129.642578,1201.641602   C1127.846680,1202.388428 1126.423340,1202.696655 1124.800415,1202.750732   C1123.733887,1202.997803 1122.866943,1203.498901 1121.607178,1204.048584   C1106.899414,1207.381714 1092.674683,1211.152710 1078.246582,1213.825806   C1060.919922,1217.035889 1043.420044,1219.310547 1025.995117,1221.990234   C1026.330078,1218.672607 1026.905884,1215.359131 1026.961304,1212.036865   C1027.366577,1187.772095 1027.744751,1163.506226 1027.983276,1139.239380   C1028.380371,1098.823853 1028.673584,1058.407349 1028.998047,1017.991211   C1029.339844,975.410767 1029.573120,932.829041 1030.084839,890.250671   C1030.179810,882.338257 1031.369995,874.439148 1032.092285,866.078369  z"/>
<path fill="#0AAEDF" opacity="1.000000" stroke="none" d=" M1136.025513,630.139832   C1121.349243,613.676514 1103.896362,602.129456 1082.223511,598.746826   C1068.822021,596.655090 1055.089478,596.893494 1041.430664,601.138489   C1042.860840,599.823486 1044.545654,598.202332 1046.547607,597.243042   C1072.862671,584.634338 1099.222412,572.118896 1125.788452,559.307922   C1131.767090,557.041992 1137.472900,554.866516 1143.301514,553.094421   C1153.568970,549.973022 1163.911377,547.098022 1174.599365,544.502502   C1174.651001,547.829529 1174.054321,550.772888 1174.043213,553.718445   C1173.961548,575.474976 1173.996704,597.231995 1173.995117,618.988770   C1162.625854,622.507507 1151.260376,626.039062 1139.880981,629.524475   C1138.786499,629.859680 1137.604370,629.908203 1136.025513,630.139832  z"/>
<path fill="#0CB0E4" opacity="1.000000" stroke="none" d=" M1174.371338,618.950378   C1173.996704,597.231995 1173.961548,575.474976 1174.043213,553.718445   C1174.054321,550.772888 1174.651001,547.829529 1174.985840,544.467834   C1189.036499,542.029053 1203.077759,540.007690 1217.564453,537.962769   C1227.473267,537.763977 1236.936768,537.588623 1246.709839,537.691284   C1241.911255,539.680115 1240.789307,543.503540 1240.945557,548.448975   C1241.428101,563.726624 1241.727417,579.011169 1241.946899,594.295105   C1241.989258,597.243042 1241.347656,600.200806 1241.010742,603.577026   C1229.273926,606.006409 1217.448608,607.566772 1205.851318,610.151306   C1195.354004,612.490601 1185.105713,615.947693 1174.371338,618.950378  z"/>
<path fill="#13B4F3" opacity="1.000000" stroke="none" d=" M1025.556885,1221.993896   C1043.420044,1219.310547 1060.919922,1217.035889 1078.246582,1213.825806   C1092.674683,1211.152710 1106.899414,1207.381714 1121.944824,1204.048096   C1123.450195,1203.667603 1124.225098,1203.336182 1125.000000,1203.004883   C1126.423340,1202.696655 1127.846680,1202.388428 1129.635010,1202.040039   C1132.961426,1201.770386 1135.922974,1201.540894 1138.947021,1201.648560   C1127.657715,1204.981079 1116.399536,1208.415039 1104.932007,1210.871826   C1086.526611,1214.814575 1068.038940,1218.446533 1049.477173,1221.561890   C1037.110840,1223.637329 1024.582397,1224.904541 1012.077942,1225.959595   C996.413513,1227.281372 980.700500,1228.033569 965.004944,1228.972412   C963.543091,1229.059937 962.055786,1228.723755 960.284302,1228.286865   C960.552185,1227.682861 961.097595,1227.150146 961.682678,1227.102417   C982.825745,1225.372559 1003.972473,1223.688232 1025.556885,1221.993896  z"/>
<path fill="#10B1ED" opacity="1.000000" stroke="none" d=" M800.579590,826.007202   C797.694702,829.172729 797.916260,833.218628 797.960876,837.330444   C798.072021,847.588440 798.205200,857.854492 797.908691,868.105164   C797.763428,873.126465 796.681580,878.120728 796.021118,883.514893   C772.577698,876.054932 749.136719,868.207275 725.695312,860.361084   C725.382385,860.256348 725.062866,860.171021 724.149719,859.768677   C714.768433,855.509949 705.899353,851.735535 697.215942,847.573730   C675.281128,837.060852 654.694702,824.278564 634.988708,810.052246   C634.500732,809.756958 634.012695,809.461731 633.265869,809.044373   C633.007019,795.180176 633.007019,781.438049 633.007019,767.695923   C633.674744,767.373840 634.342468,767.051819 635.010193,766.729797   C639.652527,769.360168 644.520630,771.679382 648.812927,774.792419   C650.283508,775.858887 650.853577,778.900085 650.906006,781.061646   C651.127930,790.214539 650.960815,799.376160 651.036133,808.533813   C651.050049,810.224792 651.528076,811.911926 651.791870,813.600830   C652.370178,813.678528 652.948425,813.756226 653.526672,813.833923   C654.017395,812.008301 654.895874,810.190308 654.931763,808.355774   C655.088196,800.366211 654.999573,792.371826 655.000000,784.379150   C655.000061,782.763977 655.000000,781.148865 655.000000,778.534668   C661.332886,781.279358 666.775391,783.638123 672.610168,785.995972   C675.447327,787.299500 677.842224,788.709656 680.344849,789.891785   C703.565674,800.859863 727.176819,810.801575 752.601807,816.989014   C766.596863,819.664795 780.191650,822.344910 793.792664,824.993286   C795.898315,825.403320 798.032349,825.667969 800.579590,826.007202  z"/>
<path fill="#03E6FD" opacity="1.000000" stroke="none" d=" M634.935913,810.376526   C654.694702,824.278564 675.281128,837.060852 697.215942,847.573730   C705.899353,851.735535 714.768433,855.509949 723.778076,859.729187   C720.063171,861.870789 718.933411,864.959778 718.908997,869.287842   C718.755432,896.544250 718.239990,923.798523 718.030701,951.054932   C717.874756,971.360535 718.098694,991.668945 717.980042,1011.975098   C717.709900,1058.206177 717.372986,1104.436890 716.962708,1150.666870   C716.889221,1158.949341 716.296204,1167.226440 716.020203,1175.508423   C715.923279,1178.416626 716.057739,1181.332642 716.039551,1184.634766   C704.797546,1180.410034 693.383728,1176.256348 682.459961,1171.070435   C667.003784,1163.733032 651.913147,1155.626099 636.650635,1147.878906   C635.782654,1147.438232 634.774536,1147.273926 633.468506,1146.975830   C632.613342,1146.338745 632.121338,1145.706665 631.311035,1145.013428   C629.350952,1142.479980 628.243530,1139.197876 625.963318,1137.693726   C620.036987,1133.784302 616.522888,1129.649658 616.796570,1121.690063   C617.676758,1096.089478 617.665955,1070.458374 618.001465,1044.838989   C618.332642,1019.552917 618.781677,994.267761 618.976257,968.980652   C619.387634,915.534058 619.664124,862.086365 620.014282,808.639282   C620.023560,807.222046 620.243713,805.806335 620.473511,803.134583   C623.254944,805.425720 625.004944,807.426086 627.205017,808.526855   C629.541931,809.696106 632.305786,810.012207 634.935913,810.376526  z"/>
<path fill="#0EC2F6" opacity="1.000000" stroke="none" d=" M1124.800415,1202.750732   C1124.225098,1203.336182 1123.450195,1203.667603 1122.337646,1203.999512   C1122.866943,1203.498901 1123.733887,1202.997803 1124.800415,1202.750732  z"/>
</svg>